<svg width="1112" height="666" viewBox="0 0 1112 666" fill="none" xmlns="http://www.w3.org/2000/svg">
<path d="M0 0H86.6458V446.134H0V0Z" fill="#005F99"/>
<path d="M141.952 259.937V186.196H433.229V259.937H141.952Z" fill="black"/>
<path d="M141.952 446.134V370.549H433.229V446.134H141.952Z" fill="black"/>
<path d="M141.952 75.5846V0H433.229V75.5846H141.952Z" fill="black"/>
<path d="M852.376 110.174C881.399 55.3298 937.06 16.8868 1002.1 6.76337C1012.61 5.12703 1037.49 3.99647 1065.52 3.87945L1111.65 3.68705V78.6868L1065.52 79.502C1022.12 80.2676 1018.45 80.6266 1003.52 85.5673C970.32 96.5496 946.353 116.612 931.38 145.953C907.872 192.022 907.479 257.166 930.422 305.001C940.05 325.073 961.905 347.286 981.94 357.362C1004.9 368.907 1017.61 371.103 1067.5 372.129L1111.65 373.037V447.977L1070.48 447.961C1003.73 447.933 977.837 443.409 940.032 425.164C906.499 408.981 882.923 389.107 863.787 360.894C818.118 293.555 813.144 184.305 852.376 110.174Z" fill="#005F99"/>
<path d="M486.691 81.0411V5.31744L545.715 6.14453C601.504 6.92601 605.784 7.25328 623.822 12.0909C705.707 34.0575 759.398 94.6435 773.385 180.864C777.157 204.111 777.177 249.421 773.423 272.552C759.793 356.566 704.711 418.146 624.509 439.034C598.594 445.781 575.73 447.864 526.867 447.926L486.691 447.977V370.623H533.192C586.379 370.623 598.316 368.774 620.549 357.102C646.938 343.244 669.089 317.259 679.205 288.291C691.714 252.47 692.204 197.887 680.312 164.724C665.867 124.443 634.449 95.1414 594.844 85.0139C581.474 81.5965 572.836 81.0411 532.997 81.0411H486.691Z" fill="#005F99"/>
<path d="M1.54856 505.126H38.4929C42.3274 505.126 45.8301 505.643 49.001 506.675C52.2456 507.707 55.0109 509.182 57.2968 511.099C59.6565 512.943 61.4632 515.192 62.7168 517.847C64.0441 520.428 64.7078 523.304 64.7078 526.474C64.7078 529.94 63.786 533.111 61.9425 535.987C60.1727 538.789 57.813 541.038 54.8634 542.734C58.4767 544.43 61.4263 546.753 63.7123 549.703C66.072 552.653 67.2519 556.082 67.2519 559.99C67.2519 563.382 66.5882 566.479 65.2609 569.281C63.9335 572.01 62.0531 574.369 59.6197 576.36C57.26 578.351 54.4209 579.9 51.1026 581.006C47.858 582.038 44.2447 582.555 40.2626 582.555H1.54856V505.126ZM37.3867 519.063H18.4721V536.54H33.8472C35.5432 536.54 37.2024 536.43 38.8247 536.208C40.5207 535.987 42.0324 535.581 43.3598 534.992C44.6871 534.402 45.7563 533.554 46.5675 532.448C47.3787 531.268 47.7842 529.719 47.7842 527.802C47.7842 525.147 46.7887 523.046 44.7977 521.497C42.8804 519.875 40.4101 519.063 37.3867 519.063ZM38.9353 568.617C42.2536 568.617 44.9452 567.769 47.0099 566.073C49.0747 564.377 50.1071 562.055 50.1071 559.105C50.1071 556.229 49.0747 553.943 47.0099 552.247C44.9452 550.551 42.2536 549.703 38.9353 549.703H18.4721V568.617H38.9353Z" fill="black"/>
<path d="M223.794 543.841C223.794 549.371 222.725 554.57 220.586 559.437C218.522 564.304 215.646 568.544 211.959 572.157C208.345 575.77 204.068 578.609 199.128 580.674C194.187 582.739 188.841 583.771 183.089 583.771C177.632 583.771 172.433 582.813 167.493 580.895C162.552 578.904 158.201 576.176 154.441 572.71C150.754 569.171 147.804 564.967 145.592 560.1C143.379 555.16 142.273 549.74 142.273 543.841C142.273 538.457 143.269 533.369 145.26 528.576C147.325 523.709 150.164 519.469 153.777 515.856C157.39 512.169 161.704 509.256 166.719 507.117C171.733 504.979 177.19 503.91 183.089 503.91C188.546 503.91 193.708 504.905 198.575 506.896C203.515 508.887 207.829 511.652 211.516 515.192C215.277 518.732 218.264 522.935 220.476 527.802C222.688 532.669 223.794 538.015 223.794 543.841ZM206.428 543.841C206.428 540.375 205.801 537.167 204.548 534.217C203.368 531.194 201.709 528.613 199.57 526.474C197.505 524.262 195.035 522.529 192.159 521.276C189.357 520.022 186.334 519.395 183.089 519.395C180.066 519.395 177.116 519.985 174.24 521.165C171.438 522.271 168.931 523.893 166.719 526.032C164.58 528.097 162.847 530.641 161.52 533.664C160.266 536.688 159.639 540.08 159.639 543.841C159.639 547.159 160.192 550.293 161.299 553.242C162.405 556.192 163.99 558.773 166.055 560.985C168.12 563.198 170.59 564.967 173.466 566.295C176.342 567.622 179.549 568.286 183.089 568.286C186.186 568.286 189.136 567.696 191.938 566.516C194.74 565.336 197.21 563.677 199.349 561.538C201.487 559.4 203.183 556.856 204.437 553.906C205.764 550.883 206.428 547.528 206.428 543.841Z" fill="black"/>
<path d="M380.141 543.841C380.141 549.371 379.072 554.57 376.933 559.437C374.869 564.304 371.993 568.544 368.306 572.157C364.692 575.77 360.415 578.609 355.475 580.674C350.534 582.739 345.188 583.771 339.436 583.771C333.979 583.771 328.78 582.813 323.84 580.895C318.899 578.904 314.548 576.176 310.788 572.71C307.101 569.171 304.151 564.967 301.939 560.1C299.726 555.16 298.62 549.74 298.62 543.841C298.62 538.457 299.616 533.369 301.607 528.576C303.672 523.709 306.511 519.469 310.124 515.856C313.737 512.169 318.051 509.256 323.065 507.117C328.08 504.979 333.537 503.91 339.436 503.91C344.893 503.91 350.055 504.905 354.922 506.896C359.862 508.887 364.176 511.652 367.863 515.192C371.624 518.732 374.61 522.935 376.823 527.802C379.035 532.669 380.141 538.015 380.141 543.841ZM362.775 543.841C362.775 540.375 362.148 537.167 360.895 534.217C359.715 531.194 358.056 528.613 355.917 526.474C353.852 524.262 351.382 522.529 348.506 521.276C345.704 520.022 342.681 519.395 339.436 519.395C336.413 519.395 333.463 519.985 330.587 521.165C327.785 522.271 325.278 523.893 323.065 526.032C320.927 528.097 319.194 530.641 317.867 533.664C316.613 536.688 315.986 540.08 315.986 543.841C315.986 547.159 316.539 550.293 317.646 553.242C318.752 556.192 320.337 558.773 322.402 560.985C324.467 563.198 326.937 564.967 329.813 566.295C332.689 567.622 335.896 568.286 339.436 568.286C342.533 568.286 345.483 567.696 348.285 566.516C351.087 565.336 353.557 563.677 355.696 561.538C357.834 559.4 359.53 556.856 360.784 553.906C362.111 550.883 362.775 547.528 362.775 543.841Z" fill="black"/>
<path d="M448.547 520.059V505.126H516.684V520.059H491.133V582.555H474.209V520.059H448.547Z" fill="black"/>
<path d="M626.766 568.064C634.73 568.064 641.367 564.783 646.676 558.22C648.594 560.063 650.437 561.907 652.207 563.751C654.05 565.52 655.931 567.327 657.848 569.171C654.013 573.742 649.257 577.319 643.579 579.9C637.901 582.407 632.112 583.661 626.213 583.661C620.535 583.661 615.189 582.665 610.174 580.674C605.234 578.683 600.883 575.918 597.122 572.378C593.435 568.839 590.485 564.635 588.273 559.769C586.135 554.902 585.066 549.592 585.066 543.841C585.066 538.384 586.098 533.222 588.163 528.355C590.227 523.488 593.066 519.248 596.68 515.635C600.367 512.021 604.718 509.182 609.732 507.117C614.82 504.979 620.314 503.91 626.213 503.91C629.31 503.91 632.37 504.278 635.394 505.016C638.491 505.679 641.404 506.638 644.132 507.892C646.934 509.145 649.552 510.694 651.986 512.537C654.419 514.307 656.521 516.335 658.29 518.621C656.373 520.538 654.456 522.419 652.539 524.262C650.695 526.032 648.815 527.876 646.897 529.793C644.317 526.548 641.219 524.004 637.606 522.161C634.066 520.317 630.269 519.395 626.213 519.395C622.968 519.395 619.908 519.985 617.032 521.165C614.156 522.345 611.649 524.041 609.511 526.253C607.372 528.392 605.639 530.973 604.312 533.996C603.058 536.946 602.432 540.227 602.432 543.841C602.432 547.159 603.021 550.293 604.201 553.242C605.381 556.192 607.04 558.773 609.179 560.985C611.391 563.198 613.972 564.93 616.922 566.184C619.945 567.438 623.227 568.064 626.766 568.064Z" fill="black"/>
<path d="M726.181 582.555L757.705 505.126H777.173L808.255 582.555H790.004L782.482 562.755H751.4L743.879 582.555H726.181ZM756.599 549.26H777.505L767.107 521.718L756.599 549.26Z" fill="black"/>
<path d="M923.222 577.024L896.896 526.696V582.555H881.3V505.126H902.869L923.332 545.389L943.906 505.126H965.475V582.555H949.437V526.917L923.222 577.024Z" fill="black"/>
<path d="M1045.96 582.555V505.126H1085.01C1088.77 505.126 1092.24 505.753 1095.41 507.007C1098.58 508.187 1101.31 509.883 1103.59 512.095C1105.95 514.233 1107.76 516.814 1109.01 519.838C1110.34 522.861 1111 526.18 1111 529.793C1111 533.332 1110.34 536.577 1109.01 539.527C1107.76 542.476 1105.95 545.057 1103.59 547.269C1101.31 549.408 1098.58 551.067 1095.41 552.247C1092.24 553.427 1088.77 554.017 1085.01 554.017H1062.89V582.555H1045.96ZM1083.02 519.617H1062.89V539.969H1079.15C1081.07 539.969 1082.91 539.858 1084.68 539.637C1086.52 539.342 1088.11 538.826 1089.43 538.089C1090.84 537.351 1091.94 536.356 1092.75 535.102C1093.56 533.775 1093.97 532.042 1093.97 529.903C1093.97 526.806 1092.97 524.336 1090.98 522.492C1088.99 520.575 1086.34 519.617 1083.02 519.617Z" fill="black"/>
<path d="M18.3615 660.514C19.9838 660.514 21.5029 660.174 22.9187 659.496C24.3346 658.818 25.5734 657.815 26.6353 656.487C27.3137 657.136 27.9626 657.785 28.582 658.434C29.231 659.054 29.8799 659.688 30.5288 660.337C29.7619 661.221 28.9065 662.018 27.9626 662.726C27.0187 663.404 26.0011 663.994 24.9097 664.496C23.8479 664.968 22.7418 665.322 21.5914 665.557C20.441 665.823 19.2907 665.956 18.1403 665.956C15.8691 665.956 13.7453 665.558 11.7691 664.761C9.79282 663.965 8.06728 662.859 6.59245 661.443C5.14713 660.027 3.99677 658.346 3.14137 656.399C2.28597 654.452 1.85828 652.328 1.85828 650.028C1.85828 647.845 2.25648 645.78 3.05288 643.833C3.87878 641.887 5.01439 640.191 6.45972 638.745C7.93454 637.3 9.66008 636.164 11.6363 635.338C13.6126 634.483 15.7806 634.055 18.1403 634.055C20.5885 634.055 22.9187 634.557 25.131 635.56C27.3727 636.563 29.231 637.949 30.7058 639.719L26.7238 643.701C25.6619 642.373 24.3788 641.341 22.8745 640.604C21.3997 639.866 19.8216 639.497 18.1403 639.497C16.7245 639.497 15.3971 639.763 14.1583 640.294C12.9194 640.825 11.8428 641.562 10.9284 642.506C10.014 643.42 9.29138 644.527 8.76044 645.824C8.22951 647.122 7.96404 648.523 7.96404 650.028C7.96404 651.473 8.21476 652.83 8.7162 654.098C9.24713 655.367 9.9698 656.487 10.8842 657.461C11.7986 658.405 12.8899 659.157 14.1583 659.717C15.4266 660.248 16.8277 660.514 18.3615 660.514Z" fill="black"/>
<path d="M70.6452 650.028C70.6452 652.24 70.2323 654.319 69.4064 656.266C68.5805 658.213 67.4449 659.909 65.9995 661.354C64.5542 662.8 62.8434 663.935 60.8672 664.761C58.9204 665.587 56.8114 666 54.5402 666C52.3574 666 50.2927 665.602 48.3459 664.805C46.3992 664.009 44.6884 662.903 43.2135 661.487C41.7682 660.071 40.6179 658.39 39.7625 656.443C38.9071 654.467 38.4794 652.328 38.4794 650.028C38.4794 647.874 38.8776 645.824 39.674 643.878C40.4704 641.931 41.5765 640.235 42.9923 638.789C44.4376 637.344 46.1337 636.194 48.0805 635.338C50.0567 634.483 52.21 634.055 54.5402 634.055C56.6934 634.055 58.7434 634.453 60.6902 635.25C62.6664 636.046 64.3772 637.167 65.8226 638.612C67.2974 640.028 68.4625 641.71 69.3179 643.656C70.2028 645.603 70.6452 647.727 70.6452 650.028ZM64.5395 650.028C64.5395 648.553 64.274 647.181 63.7431 645.913C63.2416 644.615 62.5485 643.494 61.6636 642.55C60.7787 641.606 59.7168 640.869 58.478 640.338C57.2686 639.778 55.956 639.497 54.5402 639.497C53.2128 639.497 51.9445 639.748 50.7351 640.25C49.5258 640.751 48.4639 641.474 47.5495 642.418C46.6351 643.332 45.8977 644.438 45.3373 645.736C44.8064 647.034 44.5409 648.464 44.5409 650.028C44.5409 651.473 44.7769 652.845 45.2488 654.142C45.7502 655.411 46.4434 656.517 47.3283 657.461C48.2132 658.405 49.2603 659.157 50.4697 659.717C51.7085 660.278 53.0654 660.558 54.5402 660.558C55.8675 660.558 57.1359 660.307 58.3452 659.806C59.5546 659.275 60.6164 658.552 61.5308 657.638C62.4452 656.694 63.1679 655.588 63.6988 654.319C64.2593 653.022 64.5395 651.591 64.5395 650.028Z" fill="black"/>
<path d="M81.1765 665.513V634.542H87.1053V660.292H103.918V665.513H81.1765Z" fill="black"/>
<path d="M114.426 665.513V634.542H120.355V660.292H137.168V665.513H114.426Z" fill="black"/>
<path d="M147.676 665.513V634.542H170.816V639.674H153.605V647.373H165.197V652.373H153.605V660.381H170.993V665.513H147.676Z" fill="black"/>
<path d="M210.197 650.205C210.197 652.358 209.828 654.393 209.091 656.31C208.353 658.228 207.306 659.909 205.949 661.354C204.592 662.77 202.97 663.906 201.082 664.761C199.224 665.587 197.159 666 194.888 666C192.646 666 190.537 665.602 188.561 664.805C186.614 663.979 184.903 662.859 183.429 661.443C181.954 659.997 180.789 658.301 179.933 656.355C179.078 654.408 178.65 652.299 178.65 650.028C178.65 647.874 179.048 645.839 179.845 643.922C180.671 641.975 181.792 640.279 183.207 638.834C184.653 637.359 186.364 636.194 188.34 635.338C190.316 634.483 192.469 634.055 194.8 634.055C197.307 634.055 199.666 634.557 201.879 635.56C204.12 636.563 205.993 637.949 207.498 639.719C206.819 640.368 206.126 641.016 205.418 641.665C204.74 642.285 204.061 642.904 203.383 643.524C202.321 642.255 201.038 641.267 199.534 640.559C198.059 639.851 196.481 639.497 194.8 639.497C193.384 639.497 192.056 639.763 190.818 640.294C189.608 640.825 188.546 641.562 187.632 642.506C186.747 643.45 186.039 644.571 185.508 645.869C185.007 647.137 184.756 648.523 184.756 650.028C184.756 651.503 185.007 652.889 185.508 654.187C186.01 655.455 186.717 656.576 187.632 657.549C188.546 658.493 189.623 659.245 190.862 659.806C192.101 660.366 193.472 660.646 194.977 660.646C196.097 660.646 197.145 660.484 198.118 660.16C199.121 659.806 200.006 659.319 200.773 658.7C201.569 658.051 202.233 657.284 202.764 656.399C203.324 655.514 203.707 654.541 203.914 653.479H194.711V648.302H210.197V650.205Z" fill="black"/>
<path d="M220.743 665.513V634.542H243.883V639.674H226.672V647.373H238.264V652.373H226.672V660.381H244.06V665.513H220.743Z" fill="black"/>
<path d="M300.586 650.028C300.586 652.24 300.173 654.319 299.347 656.266C298.521 658.213 297.385 659.909 295.94 661.354C294.495 662.8 292.784 663.935 290.808 664.761C288.861 665.587 286.752 666 284.481 666C282.298 666 280.233 665.602 278.286 664.805C276.34 664.009 274.629 662.903 273.154 661.487C271.709 660.071 270.558 658.39 269.703 656.443C268.848 654.467 268.42 652.328 268.42 650.028C268.42 647.874 268.818 645.824 269.614 643.878C270.411 641.931 271.517 640.235 272.933 638.789C274.378 637.344 276.074 636.194 278.021 635.338C279.997 634.483 282.15 634.055 284.481 634.055C286.634 634.055 288.684 634.453 290.631 635.25C292.607 636.046 294.318 637.167 295.763 638.612C297.238 640.028 298.403 641.71 299.258 643.656C300.143 645.603 300.586 647.727 300.586 650.028ZM294.48 650.028C294.48 648.553 294.215 647.181 293.684 645.913C293.182 644.615 292.489 643.494 291.604 642.55C290.719 641.606 289.657 640.869 288.418 640.338C287.209 639.778 285.896 639.497 284.481 639.497C283.153 639.497 281.885 639.748 280.676 640.25C279.466 640.751 278.404 641.474 277.49 642.418C276.576 643.332 275.838 644.438 275.278 645.736C274.747 647.034 274.481 648.464 274.481 650.028C274.481 651.473 274.717 652.845 275.189 654.142C275.691 655.411 276.384 656.517 277.269 657.461C278.154 658.405 279.201 659.157 280.41 659.717C281.649 660.278 283.006 660.558 284.481 660.558C285.808 660.558 287.076 660.307 288.286 659.806C289.495 659.275 290.557 658.552 291.471 657.638C292.386 656.694 293.108 655.588 293.639 654.319C294.2 653.022 294.48 651.591 294.48 650.028Z" fill="black"/>
<path d="M311.117 665.513V634.542H334.345V639.674H317.046V647.594H328.726V652.594H317.046V665.513H311.117Z" fill="black"/>
<path d="M359.686 665.513V634.542H382.825V639.674H365.614V647.373H377.206V652.373H365.614V660.381H383.002V665.513H359.686Z" fill="black"/>
<path d="M393.67 634.542H399.422L415.084 655.602V634.542H420.659V665.513H415.394L399.245 643.833L399.289 665.513H393.67V634.542Z" fill="black"/>
<path d="M462.758 650.205C462.758 652.358 462.389 654.393 461.652 656.31C460.914 658.228 459.867 659.909 458.51 661.354C457.154 662.77 455.531 663.906 453.644 664.761C451.785 665.587 449.72 666 447.449 666C445.208 666 443.099 665.602 441.122 664.805C439.176 663.979 437.465 662.859 435.99 661.443C434.515 659.997 433.35 658.301 432.495 656.355C431.639 654.408 431.211 652.299 431.211 650.028C431.211 647.874 431.61 645.839 432.406 643.922C433.232 641.975 434.353 640.279 435.769 638.834C437.214 637.359 438.925 636.194 440.901 635.338C442.877 634.483 445.031 634.055 447.361 634.055C449.868 634.055 452.228 634.557 454.44 635.56C456.682 636.563 458.555 637.949 460.059 639.719C459.381 640.368 458.687 641.016 457.98 641.665C457.301 642.285 456.623 642.904 455.944 643.524C454.882 642.255 453.599 641.267 452.095 640.559C450.62 639.851 449.042 639.497 447.361 639.497C445.945 639.497 444.618 639.763 443.379 640.294C442.169 640.825 441.108 641.562 440.193 642.506C439.308 643.45 438.6 644.571 438.069 645.869C437.568 647.137 437.317 648.523 437.317 650.028C437.317 651.503 437.568 652.889 438.069 654.187C438.571 655.455 439.279 656.576 440.193 657.549C441.108 658.493 442.184 659.245 443.423 659.806C444.662 660.366 446.033 660.646 447.538 660.646C448.659 660.646 449.706 660.484 450.679 660.16C451.682 659.806 452.567 659.319 453.334 658.7C454.13 658.051 454.794 657.284 455.325 656.399C455.885 655.514 456.269 654.541 456.475 653.479H447.272V648.302H462.758V650.205Z" fill="black"/>
<path d="M473.305 665.513V634.542H479.234V665.513H473.305Z" fill="black"/>
<path d="M491.043 634.542H496.795L512.457 655.602V634.542H518.032V665.513H512.767L496.618 643.833L496.662 665.513H491.043V634.542Z" fill="black"/>
<path d="M529.823 665.513V634.542H552.963V639.674H535.752V647.373H547.344V652.373H535.752V660.381H553.14V665.513H529.823Z" fill="black"/>
<path d="M563.808 665.513V634.542H586.948V639.674H569.737V647.373H581.329V652.373H569.737V660.381H587.125V665.513H563.808Z" fill="black"/>
<path d="M597.792 665.513V634.542H612.393C613.897 634.542 615.284 634.778 616.552 635.25C617.85 635.692 618.956 636.341 619.87 637.197C620.814 638.023 621.552 639.026 622.083 640.205C622.614 641.356 622.879 642.639 622.879 644.055C622.879 646.031 622.319 647.786 621.198 649.32C620.106 650.824 618.646 651.915 616.818 652.594C617.938 654.747 619.059 656.9 620.18 659.054C621.301 661.207 622.422 663.36 623.543 665.513H616.95C615.918 663.478 614.9 661.472 613.897 659.496C612.924 657.49 611.936 655.47 610.933 653.435H603.721V665.513H597.792ZM611.862 639.63H603.721V648.612H610.712C611.567 648.612 612.364 648.538 613.101 648.391C613.868 648.243 614.531 647.992 615.092 647.638C615.652 647.284 616.095 646.827 616.419 646.267C616.744 645.677 616.906 644.969 616.906 644.143C616.906 642.786 616.434 641.695 615.49 640.869C614.576 640.043 613.366 639.63 611.862 639.63Z" fill="black"/>
<path d="M633.246 665.513V634.542H639.174V665.513H633.246Z" fill="black"/>
<path d="M650.984 634.542H656.736L672.398 655.602V634.542H677.973V665.513H672.708L656.559 643.833L656.603 665.513H650.984V634.542Z" fill="black"/>
<path d="M720.072 650.205C720.072 652.358 719.703 654.393 718.966 656.31C718.229 658.228 717.181 659.909 715.825 661.354C714.468 662.77 712.845 663.906 710.958 664.761C709.099 665.587 707.035 666 704.763 666C702.522 666 700.413 665.602 698.436 664.805C696.49 663.979 694.779 662.859 693.304 661.443C691.829 659.997 690.664 658.301 689.809 656.355C688.953 654.408 688.526 652.299 688.526 650.028C688.526 647.874 688.924 645.839 689.72 643.922C690.546 641.975 691.667 640.279 693.083 638.834C694.528 637.359 696.239 636.194 698.215 635.338C700.191 634.483 702.345 634.055 704.675 634.055C707.182 634.055 709.542 634.557 711.754 635.56C713.996 636.563 715.869 637.949 717.373 639.719C716.695 640.368 716.002 641.016 715.294 641.665C714.615 642.285 713.937 642.904 713.258 643.524C712.197 642.255 710.913 641.267 709.409 640.559C707.934 639.851 706.356 639.497 704.675 639.497C703.259 639.497 701.932 639.763 700.693 640.294C699.484 640.825 698.422 641.562 697.507 642.506C696.622 643.45 695.914 644.571 695.384 645.869C694.882 647.137 694.631 648.523 694.631 650.028C694.631 651.503 694.882 652.889 695.384 654.187C695.885 655.455 696.593 656.576 697.507 657.549C698.422 658.493 699.498 659.245 700.737 659.806C701.976 660.366 703.348 660.646 704.852 660.646C705.973 660.646 707.02 660.484 707.993 660.16C708.996 659.806 709.881 659.319 710.648 658.7C711.444 658.051 712.108 657.284 712.639 656.399C713.199 655.514 713.583 654.541 713.789 653.479H704.586V648.302H720.072V650.205Z" fill="black"/>
<path d="M760.77 660.514C762.392 660.514 763.911 660.174 765.327 659.496C766.743 658.818 767.982 657.815 769.044 656.487C769.722 657.136 770.371 657.785 770.99 658.434C771.639 659.054 772.288 659.688 772.937 660.337C772.17 661.221 771.315 662.018 770.371 662.726C769.427 663.404 768.409 663.994 767.318 664.496C766.256 664.968 765.15 665.322 764 665.557C762.849 665.823 761.699 665.956 760.549 665.956C758.277 665.956 756.154 665.558 754.177 664.761C752.201 663.965 750.476 662.859 749.001 661.443C747.555 660.027 746.405 658.346 745.55 656.399C744.694 654.452 744.267 652.328 744.267 650.028C744.267 647.845 744.665 645.78 745.461 643.833C746.287 641.887 747.423 640.191 748.868 638.745C750.343 637.3 752.068 636.164 754.045 635.338C756.021 634.483 758.189 634.055 760.549 634.055C762.997 634.055 765.327 634.557 767.539 635.56C769.781 636.563 771.639 637.949 773.114 639.719L769.132 643.701C768.07 642.373 766.787 641.341 765.283 640.604C763.808 639.866 762.23 639.497 760.549 639.497C759.133 639.497 757.805 639.763 756.567 640.294C755.328 640.825 754.251 641.562 753.337 642.506C752.422 643.42 751.7 644.527 751.169 645.824C750.638 647.122 750.372 648.523 750.372 650.028C750.372 651.473 750.623 652.83 751.125 654.098C751.655 655.367 752.378 656.487 753.292 657.461C754.207 658.405 755.298 659.157 756.567 659.717C757.835 660.248 759.236 660.514 760.77 660.514Z" fill="black"/>
<path d="M782.946 665.513V634.542H788.875V647.24H803.653V634.542H809.582V665.513H803.653V652.594H788.875V665.513H782.946Z" fill="black"/>
<path d="M821.338 665.513V634.542H844.478V639.674H827.267V647.373H838.859V652.373H827.267V660.381H844.655V665.513H821.338Z" fill="black"/>
<path d="M855.322 634.542H861.074L876.737 655.602V634.542H882.312V665.513H877.047L860.897 643.833L860.941 665.513H855.322V634.542Z" fill="black"/>
<path d="M924.41 650.205C924.41 652.358 924.042 654.393 923.304 656.31C922.567 658.228 921.52 659.909 920.163 661.354C918.806 662.77 917.184 663.906 915.296 664.761C913.438 665.587 911.373 666 909.102 666C906.86 666 904.751 665.602 902.775 664.805C900.828 663.979 899.117 662.859 897.642 661.443C896.168 659.997 895.003 658.301 894.147 656.355C893.292 654.408 892.864 652.299 892.864 650.028C892.864 647.874 893.262 645.839 894.059 643.922C894.885 641.975 896.005 640.279 897.421 638.834C898.867 637.359 900.577 636.194 902.554 635.338C904.53 634.483 906.683 634.055 909.013 634.055C911.521 634.055 913.88 634.557 916.092 635.56C918.334 636.563 920.207 637.949 921.712 639.719C921.033 640.368 920.34 641.016 919.632 641.665C918.954 642.285 918.275 642.904 917.597 643.524C916.535 642.255 915.252 641.267 913.747 640.559C912.273 639.851 910.695 639.497 909.013 639.497C907.598 639.497 906.27 639.763 905.031 640.294C903.822 640.825 902.76 641.562 901.846 642.506C900.961 643.45 900.253 644.571 899.722 645.869C899.221 647.137 898.97 648.523 898.97 650.028C898.97 651.503 899.221 652.889 899.722 654.187C900.223 655.455 900.931 656.576 901.846 657.549C902.76 658.493 903.837 659.245 905.076 659.806C906.314 660.366 907.686 660.646 909.19 660.646C910.311 660.646 911.358 660.484 912.332 660.16C913.335 659.806 914.219 659.319 914.986 658.7C915.783 658.051 916.446 657.284 916.977 656.399C917.538 655.514 917.921 654.541 918.128 653.479H908.925V648.302H924.41V650.205Z" fill="black"/>
<path d="M930.476 665.513L942.998 634.542H949.856L962.2 665.513H955.829L952.643 657.151H939.856L936.671 665.513H930.476ZM941.67 652.417H950.873L946.316 640.294L941.67 652.417Z" fill="black"/>
<path d="M970.886 634.542H976.638L992.3 655.602V634.542H997.875V665.513H992.61L976.461 643.833L976.505 665.513H970.886V634.542Z" fill="black"/>
<path d="M1009.67 634.542H1015.42L1031.08 655.602V634.542H1036.66V665.513H1031.39L1015.24 643.833L1015.29 665.513H1009.67V634.542Z" fill="black"/>
<path d="M1074.82 652.196C1074.82 654.29 1074.49 656.178 1073.84 657.859C1073.22 659.54 1072.32 660.986 1071.14 662.195C1069.96 663.404 1068.55 664.333 1066.9 664.982C1065.25 665.631 1063.4 665.956 1061.37 665.956C1059.33 665.956 1057.49 665.646 1055.84 665.027C1054.18 664.378 1052.77 663.463 1051.59 662.283C1050.44 661.074 1049.54 659.629 1048.89 657.947C1048.27 656.237 1047.96 654.319 1047.96 652.196V634.542H1053.89V652.196C1053.89 654.732 1054.57 656.753 1055.92 658.257C1057.28 659.761 1059.11 660.514 1061.41 660.514C1062.53 660.514 1063.55 660.322 1064.46 659.938C1065.38 659.526 1066.16 658.965 1066.81 658.257C1067.49 657.52 1068 656.635 1068.36 655.602C1068.71 654.57 1068.89 653.435 1068.89 652.196V634.542H1074.82V652.196Z" fill="black"/>
<path d="M1086.1 665.513V634.542H1100.7C1102.21 634.542 1103.6 634.778 1104.86 635.25C1106.16 635.692 1107.27 636.341 1108.18 637.197C1109.13 638.023 1109.86 639.026 1110.39 640.205C1110.93 641.356 1111.19 642.639 1111.19 644.055C1111.19 646.031 1110.63 647.786 1109.51 649.32C1108.42 650.824 1106.96 651.915 1105.13 652.594C1106.25 654.747 1107.37 656.9 1108.49 659.054C1109.61 661.207 1110.73 663.36 1111.85 665.513H1105.26C1104.23 663.478 1103.21 661.472 1102.21 659.496C1101.24 657.49 1100.25 655.47 1099.24 653.435H1092.03V665.513H1086.1ZM1100.17 639.63H1092.03V648.612H1099.02C1099.88 648.612 1100.68 648.538 1101.41 648.391C1102.18 648.243 1102.84 647.992 1103.4 647.638C1103.96 647.284 1104.41 646.827 1104.73 646.267C1105.06 645.677 1105.22 644.969 1105.22 644.143C1105.22 642.786 1104.75 641.695 1103.8 640.869C1102.89 640.043 1101.68 639.63 1100.17 639.63Z" fill="black"/>
</svg>
